<svg width="24" height="24" viewBox="0 0 24 24" fill="none" xmlns="http://www.w3.org/2000/svg">
<g clip-path="url(#clip0_599_33)">
<path d="M22 11.567C22 16.85 17.522 21.133 12 21.133C11.3487 21.1337 10.7037 21.0743 10.065 20.955C9.606 20.868 9.377 20.825 9.217 20.85C9.057 20.874 8.829 20.995 8.375 21.236C7.08134 21.925 5.5928 22.1565 4.151 21.893C4.70175 21.2122 5.07521 20.4054 5.238 19.545C5.338 19.015 5.09 18.5 4.718 18.123C3.034 16.411 2 14.105 2 11.567C2 6.284 6.478 2 12 2C12.6867 2.00133 13.3533 2.065 14 2.191" stroke="#6580A9" stroke-width="2.25" stroke-linecap="round" stroke-linejoin="round"/>
<path d="M11.996 12H12.004M15.991 12H16M8 12H8.009M23 5.5C23 6.42826 22.6313 7.3185 21.9749 7.97487C21.3185 8.63125 20.4283 9 19.5 9C18.5717 9 17.6815 8.63125 17.0251 7.97487C16.3687 7.3185 16 6.42826 16 5.5C16 4.57174 16.3687 3.6815 17.0251 3.02513C17.6815 2.36875 18.5717 2 19.5 2C20.4283 2 21.3185 2.36875 21.9749 3.02513C22.6313 3.6815 23 4.57174 23 5.5Z" stroke="#6580A9" stroke-width="2.25" stroke-linecap="round" stroke-linejoin="round"/>
</g>
<defs>
<clipPath id="clip0_599_33">
<rect width="24" height="24" fill="white"/>
</clipPath>
</defs>
</svg>
