<svg width="24" height="24" viewBox="0 0 24 24" fill="none" xmlns="http://www.w3.org/2000/svg">
<path d="M13.5 2.149C13.0062 2.04975 12.5037 1.99984 12 2C7.844 2 4.47501 5.358 4.47501 9.5C4.47501 10.572 4.41301 11.58 3.78501 12.503C3.30701 13.2 2.66101 13.913 2.53001 14.77C2.31701 16.164 3.26801 17.131 4.43201 17.613C8.89501 19.463 15.105 19.463 19.568 17.613C20.732 17.131 21.683 16.163 21.47 14.77C21.37 14.115 20.97 13.544 20.572 13" stroke="#DEDEDE" stroke-width="2" stroke-linecap="round" stroke-linejoin="round"/>
<path d="M16.016 4H19.688C20.461 4 20.848 4 20.95 4.24C21.052 4.48 20.79 4.768 20.265 5.344L16.847 8.656C16.321 9.232 15.913 9.52 16.016 9.76C16.119 10 16.65 10 17.423 10H21M8 19C8.458 20.725 10.076 22 12 22C13.925 22 15.541 20.725 16 19" stroke="#DEDEDE" stroke-width="2" stroke-linecap="round" stroke-linejoin="round"/>
</svg>
