<svg width="24" height="24" viewBox="0 0 24 24" fill="none" xmlns="http://www.w3.org/2000/svg">
<path d="M2.25 12C2.25 6.615 6.615 2.25 12 2.25C17.385 2.25 21.75 6.615 21.75 12C21.75 17.385 17.385 21.75 12 21.75C6.615 21.75 2.25 17.385 2.25 12ZM12.301 16.124L12.306 16.121L12.315 16.115L12.347 16.093L12.464 16.012C13.0375 15.6038 13.5815 15.1556 14.092 14.671C14.536 14.244 15.002 13.733 15.362 13.179C15.716 12.634 16.01 11.979 16.01 11.281C16.01 10.499 15.748 9.838 15.243 9.379C14.749 8.93 14.107 8.75 13.479 8.75C12.8984 8.7491 12.3354 8.94868 11.885 9.315C11.5136 9.01391 11.0646 8.82415 10.5899 8.7677C10.1151 8.71125 9.63413 8.7904 9.20252 8.99601C8.77091 9.20161 8.40635 9.52525 8.15106 9.92946C7.89577 10.3337 7.76019 10.8019 7.76 11.28C7.76 11.978 8.054 12.633 8.408 13.178C8.768 13.732 9.234 14.243 9.678 14.669C10.2232 15.1864 10.8065 15.6621 11.423 16.092L11.455 16.114L11.465 16.12L11.469 16.123C11.5922 16.2051 11.7369 16.2489 11.885 16.2489C12.0331 16.2489 12.1778 16.2051 12.301 16.123" fill="#F05454"/>
</svg>
