<svg width="23" height="23" viewBox="0 0 23 23" fill="none" xmlns="http://www.w3.org/2000/svg">
<path d="M18.6875 6.84533V7.66663M18.6875 6.84533C17.9946 6.84533 17.3842 6.48213 17.0258 5.93108M18.6875 6.84533C19.3804 6.84533 19.9908 6.48213 20.3493 5.93108M17.0258 5.93108L16.2917 6.43421M17.0258 5.93108C16.8149 5.60525 16.6903 5.21138 16.6903 4.79067C16.6903 4.36996 16.8149 3.97704 17.0258 3.65121M20.3493 5.93108L21.0833 6.43421M20.3493 5.93108C20.5601 5.60525 20.6847 5.21233 20.6847 4.79163C20.6847 4.37092 20.5601 3.978 20.3493 3.65217M18.6875 2.73792C19.3804 2.73792 19.9908 3.10113 20.3493 3.65217M18.6875 2.73792C17.9946 2.73792 17.3842 3.10113 17.0258 3.65217L16.2917 3.14904M18.6875 2.73792V1.91663M20.3493 3.65217L21.0833 3.14904M4.96417 14.6586C3.75859 15.3659 0.598964 16.8082 2.5233 18.6127C3.46438 19.4944 4.51088 20.125 5.82763 20.125H13.339C14.6558 20.125 15.7033 19.4944 16.6424 18.6127C18.5677 16.8082 15.4081 15.3649 14.2025 14.6586C12.7991 13.845 11.2056 13.4165 9.58334 13.4165C7.96109 13.4165 6.36762 13.845 4.96417 14.6586ZM13.4167 6.70829C13.4167 7.72496 13.0128 8.69998 12.2939 9.41887C11.575 10.1378 10.6 10.5416 9.58334 10.5416C8.56668 10.5416 7.59165 10.1378 6.87276 9.41887C6.15387 8.69998 5.75001 7.72496 5.75001 6.70829C5.75001 5.69163 6.15387 4.71661 6.87276 3.99772C7.59165 3.27883 8.56668 2.87496 9.58334 2.87496C10.6 2.87496 11.575 3.27883 12.2939 3.99772C13.0128 4.71661 13.4167 5.69163 13.4167 6.70829Z" stroke="#6580A9" stroke-width="2" stroke-linecap="round" stroke-linejoin="round"/>
</svg>
